<?xml version="1.0" encoding="UTF-8"?>
<svg id="Layer_1" data-name="Layer 1" xmlns="http://www.w3.org/2000/svg" viewBox="0 0 40 40">
  <defs>
    <style>
      .cls-1 {
        fill: #687992;
        fill-rule: evenodd;
      }
    </style>
  </defs>
  <g id="customer-service">
    <path id="path2" class="cls-1" d="m20.8,7.21c-2.57-.09-5.09.63-7.23,2.05-2.4,1.59-4.16,3.97-4.97,6.73-.27-.03-.53,0-.79.07-1.06.33-1.94,1.09-2.43,2.1-.55,1.25-.72,2.64-.5,3.99.16,1.29.74,2.5,1.64,3.44.66.69,1.62,1,2.56.82,1.31-.28,1.97-.49,1.78-1.7l-.89-5.89c.19-3.26,1.9-6.23,4.62-8.03,3.72-2.46,8.6-2.3,12.15.4,2.41,1.83,3.9,4.63,4.07,7.65l-.62,4.12c-1.39,3.76-4.82,6.39-8.82,6.76h-2.66c-.68,0-1.23.54-1.24,1.22,0,0,0,0,0,0v.65c0,.68.55,1.23,1.23,1.23,0,0,0,0,0,0h3.34c.68,0,1.23-.54,1.23-1.22,0,0,0,0,0,0v-.34c3-.73,5.62-2.55,7.34-5.12l1.07.28c.94.21,1.91-.1,2.56-.82.9-.94,1.48-2.15,1.64-3.44.22-1.35.05-2.74-.5-3.99-.38-.95-1.15-1.69-2.12-2.02-.36-.1-.73-.15-1.1-.15-.73-2.49-2.24-4.69-4.31-6.26-2.04-1.55-4.52-2.43-7.08-2.51h.01Z"/>
    <path id="path4" class="cls-1" d="m24.72,17.8c.88,0,1.58.73,1.58,1.61,0,.88-.73,1.58-1.61,1.58-.87,0-1.58-.72-1.58-1.59,0-.88.72-1.6,1.61-1.59Zm-4.32,0c.88,0,1.59.72,1.58,1.6,0,.88-.72,1.59-1.6,1.58-.87,0-1.58-.72-1.58-1.59,0-.88.72-1.59,1.6-1.59Zm-4.32,0c.88,0,1.59.72,1.58,1.6,0,.88-.72,1.59-1.6,1.58-.87,0-1.58-.72-1.58-1.59,0-.88.72-1.59,1.6-1.59h0Zm4.32-6.84c-4.67-.02-8.47,3.74-8.49,8.41-.01,2.17.81,4.26,2.31,5.84l-.51,2.25c-.17.74.35,1.24,1.02.87l2.22-1.23c1.09.47,2.27.71,3.45.71,4.65,0,8.43-3.77,8.43-8.43s-3.77-8.43-8.43-8.43h0Z"/>
  </g>
</svg>