<?xml version="1.0" encoding="UTF-8"?>
<svg id="Layer_1" data-name="Layer 1" xmlns="http://www.w3.org/2000/svg" viewBox="0 0 40 40">
  <defs>
    <style>
      .cls-1 {
        fill: #687992;
      }
    </style>
  </defs>
  <path id="Path_127" data-name="Path 127" class="cls-1" d="m14.23,21.18h2.3l-2.89,10.16c-.17.61.18,1.24.78,1.41.4.11.82,0,1.12-.29l10.89-10.92c.48-.48.49-1.26,0-1.74-.23-.23-.55-.37-.88-.36h-2.14l2.62-9.24c.35-1.25-.37-2.55-1.62-2.9-.21-.06-.42-.09-.63-.09h-5.68c-1.04,0-1.96.7-2.25,1.7l-3,10.49c-.21.75.22,1.53.98,1.75.13.04.26.05.39.05h.02Z"/>
</svg>