<?xml version="1.0" encoding="UTF-8"?>
<svg id="Layer_1" data-name="Layer 1" xmlns="http://www.w3.org/2000/svg" viewBox="0 0 40 40">
  <defs>
    <style>
      .cls-1 {
        fill: #16e;
      }
    </style>
  </defs>
  <path class="cls-1" d="m39.9,10.35c-.44-2.9-2.28-5.37-4.93-6.61-3.15-1.57-6.71-1.04-10.02,1.5h0c-1.98,1.59-3.63,3.49-4.92,5.66-1.29-2.17-2.94-4.07-4.92-5.66-3.31-2.54-6.88-3.07-10.01-1.5C2.41,4.97.55,7.45.1,10.38c-.35,3.1.22,6.21,1.64,8.97,3.03,6.55,9.55,13.12,17.43,17.58.26.15.55.22.84.22s.58-.07.84-.22c7.87-4.45,14.38-11.03,17.39-17.58,1.42-2.78,1.99-5.89,1.64-9.01Zm-13.03-2.8c2.38-1.79,4.65-2.17,6.76-1.12,1.77.81,3,2.45,3.28,4.36.26,2.51-.22,5.01-1.39,7.27-2.68,5.82-8.46,11.74-15.5,15.87-7.05-4.14-12.85-10.04-15.55-15.87-1.17-2.23-1.65-4.74-1.39-7.22.29-1.94,1.53-3.59,3.34-4.41.77-.39,1.57-.58,2.38-.58,1.43,0,2.92.59,4.45,1.76,2.23,1.81,4.03,4.15,5.19,6.78.18.39.49.71.88.88.87.39,1.89,0,2.28-.88,1.16-2.63,2.96-4.97,5.19-6.78l.08-.07Z"/>
</svg>