<svg xmlns="http://www.w3.org/2000/svg" width="100.072" height="100.097" viewBox="0 0 100.072 100.097">
  <g id="element_valuebox" transform="translate(-1111.928 -1052.904)">
    <g id="Group_187" data-name="Group 187">
      <path id="Path_49" data-name="Path 49" d="M760.418,202.51q.015-2.531.03-5.062l.963-6.361c5.673-20.861,18.837-33.9,40.153-38.415a3.153,3.153,0,0,0,2.925-.635l2.789-.182.444.064.433-.118,1.867.217.179,50.469q.034,8.272.066,16.544,0,8.024,0,16.047c-.02,4.182-.3,8.384.018,12.538.285,3.675-1.028,4.518-4.453,4.052-20.7-2.815-35.034-13.7-42.6-33.266-.723-1.871-1.211-3.832-1.808-5.752l-1.008-10.14" transform="translate(351.51 901.103)" fill="#06e"/>
      <path id="Path_61" data-name="Path 61" d="M885.582,247.571a17.856,17.856,0,0,1-.043,10.49A24.722,24.722,0,0,1,864.967,277.5a25.817,25.817,0,0,1-25.5-12.563c-.84-1.463-.717-3.858-3.226-4.04q0-8.024,0-16.047c1.652.028,1.9-1.375,2.355-2.441a23.414,23.414,0,0,1,13.548-13c.915-.357,2.294-.192,2.266-1.777a64.8,64.8,0,0,1,14.545,0c-.1,1.774,1.489,1.767,2.493,2.243,7.609,3.609,12.5,9.348,14.139,17.705" transform="translate(325.542 875.288)" fill="#b2c7ff"/>
    </g>
    <path id="Path_97" data-name="Path 97" d="M886.024,196.469q.153,2.611.306,5.222c-.024.247-.043.5-.057.746a102.315,102.315,0,0,0-17.451-.516,64.908,64.908,0,0,0-14.544,0l-18.235.679q-.091-25.235-.18-50.47l6.482.115a2.986,2.986,0,0,0,2.982.643c20.359,4.336,33.217,16.747,39.283,36.469q.707,3.556,1.415,7.112" transform="translate(325.67 900.99)" fill="#4797ff"/>
  </g>
</svg>
