<svg xmlns="http://www.w3.org/2000/svg" width="150" height="150" viewBox="0 0 150 150">
  <g id="triangle_element_services_01" transform="translate(-1112.364 -1274.659)">
    <path id="Path_48" data-name="Path 48" d="M1065.771,1.754q-.042-.743-.083-1.485,72.289-.065,144.58-.19c3.753-.01,5.431.792,5.42,5.052q-.191,72.367-.081,144.777c-2.935.848-3.785-1.671-5.094-2.972-12.872-12.8-25.627-25.728-38.465-38.569-1.8-1.8-3.242-4.132-6-4.72,17.647-18.832,15.011-46.613-5.675-59.8-12.575-8.015-30.015-7.51-42.359,1.354-1.784,1.282-3.432,2.445-5.724,2.1-13.2-11.188-24.5-24.325-36.955-36.281-3.2-3.073-6.374-6.175-9.56-9.264" transform="translate(46.676 1274.581)" fill="#4797ff"/>
    <path id="Path_153" data-name="Path 153" d="M1112.451,47.2c2.292.349,3.94-.812,5.724-2.091,12.345-8.845,29.785-9.349,42.359-1.351,20.685,13.156,23.322,40.878,5.674,59.67-15.748,13.653-36.879,14.029-51.069.91-15.305-14.151-17.031-34.4-4.45-52.17,1.053-1.488,2.707-2.764,1.761-4.968" transform="translate(46.51 1274.745)" fill="#06e"/>
  </g>
</svg>
