<svg xmlns="http://www.w3.org/2000/svg" xmlns:xlink="http://www.w3.org/1999/xlink" width="1216" height="298" viewBox="0 0 1216 298">
  <defs>
    <clipPath id="clip-path">
      <rect id="Rectangle_20" data-name="Rectangle 20" width="1216" height="298" transform="translate(0 -0.04)" fill="none"/>
    </clipPath>
  </defs>
  <g id="epikast_tiles" transform="translate(-112 -479.67)">
    <g id="Group_24" data-name="Group 24" transform="translate(112 479.71)">
      <g id="Group_25" data-name="Group 25" transform="translate(0 0)">
        <g id="Mask_Group_24" data-name="Mask Group 24" clip-path="url(#clip-path)">
          <path id="Path_40" data-name="Path 40" d="M380.189,297.71l-10.944-.136a4.513,4.513,0,0,0-1.206-.685c-35.263-7.175-55.921-28.433-63.043-62.757.262-10.062.262-10.067-9.812-10.071q-33.191-.012-66.382-.014c-.115-22.86-.389-45.719-.222-68.576.037-5.029-1.062-6.672-6.53-6.613-22.851.244-45.708-.035-68.563-.123a1.509,1.509,0,0,0,.008-.8c9.481-9.294,19.094-18.463,28.4-27.925,6.164-6.269,13.37-11.588,18.314-18.987,2.462.436,4.041,2.28,5.93,3.613,19,13.4,45.591,7.158,56.036-13.354,8.145-15.992,4.038-30.361-6.681-43.671C271.343,32.489,287.26,17.436,302.26,1.49l1.7-.357q.084,72.595.145,145.189a13.711,13.711,0,0,1-.547,2.7l.155-.071H242.5c33,9.727,52.245,28.142,60.041,58.383a7.425,7.425,0,0,0,2.253,6.632c3.406-20.435,12.833-37.046,29.355-49.739,9.684-7.44,20.981-11.113,32.4-14.7l13.795-.441q-.189,18.533-.378,37.067c-22.78,2.038-37.732,16.825-37.689,37.277s15.35,35.534,37.771,37.209q.069,18.536.14,37.071" transform="translate(-0.047 0.265)" fill="#06e"/>
          <path id="Path_41" data-name="Path 41" d="M684.88,65.4C691.144,25.14,723.027-.942,764.644.178c3.3.088,6.591.337,9.886.511,1.978.694,3.925,1.489,5.936,2.068C807.757,10.6,825.377,28.05,833.492,54.6c1.8,5.9,2.241,12.2,3.308,18.315q-.126,1.159-.251,2.319c-1.175,21.336-8.922,39.629-25.172,54.388-7.9,7.18-17.609,11.133-26.694,16.239q-1.942.462-3.885.919a22.146,22.146,0,0,0-9.166,1.828l-10.913.589-12.967-1.213c-34.5-6.527-56.984-29.828-63.048-65.344A81.423,81.423,0,0,1,684.88,65.4" transform="translate(-0.208 0.284)" fill="#06e"/>
          <path id="Path_42" data-name="Path 42" d="M1065.747,1.719c-2.456,2.288-1.344,5.245-1.348,7.883q-.1,101.618-.052,203.238c0,11.243,0,11.217-11.217,11.26q-32.549.126-65.1.3-.345-.321-.676-.656c1.533-25.01.617-50.033.473-75.052l-.014-.468q-.158-36.988-.314-73.978c.167-.167.335-.333.5-.5,24.583,0,49.169,0,76.045,0-5.7-5.326-9.978-9.2-14.123-13.211q-29.682-28.7-59.306-57.454l-1.54-1.365c2.065-2.306,4.839-1.381,7.313-1.389,23.09-.078,46.181-.06,69.272-.07q.042.726.083,1.453" transform="translate(-0.3 0.284)" fill="#d4dfff"/>
          <path id="Path_43" data-name="Path 43" d="M151.979,152.215q-.088,73.683-.178,147.366-24.814-23-48.294-47.312a31.582,31.582,0,0,0,11.028-25.986c-1.361-23.05-17.584-38.617-41.972-36.821-12.938.952-27.037,10.886-32,23.936-5.246,13.805-1.56,29.525,9.073,38.687C33.848,268.223,17.916,284.22,1.151,299.4c-1.614-2.053-.966-4.454-.968-6.706C.147,248.3.294,203.9,0,159.51c-.042-6.356,2.032-7.672,8.056-7.586,22.881.325,45.769.134,68.655.136l75.267.155" transform="translate(0 -2.699)" fill="#d4dfff"/>
          <path id="Path_44" data-name="Path 44" d="M684.814,66.152a81.35,81.35,0,0,0-.175,17.242c-1.335.269-1.664,1.2-2.062,2.392-5.513,16.453-19.313,26.531-36.175,26.528-17.106,0-30.582-9.812-36.223-26.368-.1-1.775-.349-3.477-2.25-4.472-.834,1.716-.679,3.148.755,4.362q0,31.994-.01,63.988-66,0-132-.057c-2.694,0-5.677,1.062-8.079-1.183,5.974-.3,11.44-2.469,16.9-4.552,27.81-10.6,48.805-41.835,46.341-68.848.172-.2.352-.386.539-.57,22.9.14,45.794.068,68.681.562,6.194.133,8.169-1.67,6.585-7.382a2.481,2.481,0,0,0,2.607-2.774c2.684-13.518,16.1-25.084,29.9-26.491,20.7-2.11,36.67,7.936,42.344,25.488.41,1.267,1,2,2.322,2.135" transform="translate(-0.142 -0.465)" fill="#b2c8ff"/>
          <path id="Path_45" data-name="Path 45" d="M380.037,189.091q.189-18.533.377-37.067.081-.75.16-1.5.606.054,1.215.075c2.05,2.361,4.837,1.337,7.29,1.353,22.61.14,45.221.17,67.833.229q.039,59.894.127,119.791c.007,2.841-1.191,6.1,1.85,8.362l-.522,2.4c-.187.1-.545.234-.533.3a5.656,5.656,0,0,0,.347.967l-2.213,16.438-75.71.2q-.071-18.536-.14-37.071c.941-.088,1.879-.214,2.822-.258,22.551-1.063,39.024-21.551,34.676-43.135-3.862-19.167-15.743-29-37.579-31.093" transform="translate(-0.115 -2.672)" fill="#b2c8ff"/>
          <path id="Path_46" data-name="Path 46" d="M200.206,101c-4.946,7.4-12.151,12.717-18.315,18.986-9.3,9.462-18.915,18.631-28.4,27.924-2.307-2.031-1.411-4.735-1.422-7.161-.093-22.112-.095-44.223-.125-66.335.035-22.456.265-44.912-.036-67.363-.074-5.672,1.845-6.933,7.273-6.913C206.9.314,254.615.231,302.33.225q-.009.625-.071,1.245c-15,15.947-30.918,31-46.769,46.118-1.955-1.285-3.9-2.576-5.864-3.853-12.7-8.273-30.622-8.319-42.668-.113-13.306,9.063-19.011,24.561-15.415,40.188,1.506,6.543,5.845,11.436,8.663,17.19" transform="translate(-0.046 0.284)" fill="#b2c8ff"/>
          <path id="Path_47" data-name="Path 47" d="M698.188,227.269a174.669,174.669,0,0,0-28.258,0l-61.721-.361a1.38,1.38,0,0,1-.711-.456,64.179,64.179,0,0,0,1.241-6.822c1.391-18.37,9.452-33.646,22.4-46.656,9.272-9.312,21-14.608,33.117-19.254,12.733-2.418,25.5-2.227,38.286-.473a16.957,16.957,0,0,0,2.961,1.56c21.875,6.545,37.763,19.934,47.818,40.033,3.954,7.9,5.254,16.527,7.093,25l-.045,7.547c-20.727-.9-41.455-.687-62.184-.12" transform="translate(-0.184 -2.699)" fill="#4797ff"/>
          <path id="Path_48" data-name="Path 48" d="M1065.771,1.717q-.042-.726-.083-1.453,72.6-.063,145.193-.186c3.769-.01,5.454.774,5.443,4.942q-.192,70.794-.081,141.63c-2.947.829-3.8-1.634-5.115-2.908-12.927-12.526-25.736-25.168-38.628-37.73-1.807-1.76-3.256-4.042-6.03-4.617,17.722-18.423,15.074-45.6-5.7-58.5-12.628-7.841-30.142-7.347-42.539,1.324-1.792,1.254-3.447,2.392-5.748,2.05-13.253-10.945-24.607-23.8-37.112-35.492-3.214-3.006-6.4-6.041-9.6-9.062" transform="translate(-0.323 0.285)" fill="#4797ff"/>
          <path id="Path_49" data-name="Path 49" d="M760.418,227.386q.023-3.773.046-7.546l1.464-9.482c8.625-31.095,28.64-50.525,61.052-57.26a4.867,4.867,0,0,0,4.447-.946l4.241-.272.676.1L833,151.8l2.839.324q.137,37.613.273,75.228.051,12.33.1,24.66,0,11.96,0,23.919c-.031,6.233-.463,12.5.027,18.689.434,5.477-1.562,6.734-6.771,6.04-31.477-4.2-53.268-20.423-64.771-49.586-1.1-2.789-1.841-5.712-2.749-8.574l-1.533-15.114" transform="translate(-0.231 -2.697)" fill="#06e"/>
          <path id="Path_50" data-name="Path 50" d="M456.911,150.708c-22.611-.062-45.222-.09-67.832-.231-2.453-.015-5.238,1.009-7.29-1.353q34.068-33.5,68.086-67.054c1.818-1.8,5.083-2.978,4.207-6.546.31-.013.621-.011.94.008l76.792.383c2.464,27.012-18.53,58.246-46.341,68.848-5.463,2.082-10.929,4.25-16.9,4.551q-5.83.7-11.657,1.394" transform="translate(-0.116 -1.198)" fill="#fdfdfe"/>
          <path id="Path_51" data-name="Path 51" d="M1102.712,227.012h-36.556c.295-3.4,2.108-4.341,3.379-5.59q33-32.429,66.057-64.8c2.576-2.53,4.423-5.035,8.417-1.057,22.847,22.749,45.97,45.232,68.979,67.825a33.057,33.057,0,0,1,2.493,3.626h-37.663l-36.231.149h-2.645l-36.23-.151" transform="translate(-0.323 -2.73)" fill="#4797ff"/>
          <path id="Path_52" data-name="Path 52" d="M1138.942,228.639h2.645l26,25.6L1216,299.772l-1.567,2.047H1065.1l47.849-47.58,26-25.6" transform="translate(-0.323 -4.207)" fill="#06e"/>
          <path id="Path_53" data-name="Path 53" d="M151.924,75.9c.029,22.112.032,44.224.126,66.336.01,2.425-.888,5.13,1.422,7.161a1.5,1.5,0,0,1-.008.8l-1.462.516-75.268-.155q.082-37.5.164-75.005l-.071.075,75.1.268" transform="translate(-0.023 -1.198)" fill="#4698ff"/>
          <path id="Path_54" data-name="Path 54" d="M76.875,74.072c-23.152-.009-46.3-.146-69.455.069-5.266.049-7.513-.984-7.406-6.822.368-20.136.3-40.285.031-60.424C-.025,1.736,1.493.113,6.833.184Q38.011.6,69.2.174c5.769-.085,7.727,1.381,7.645,7.3-.311,22.221-.073,44.45-.04,66.677l.072-.075" transform="translate(0 0.284)" fill="#d4dfff"/>
          <path id="Path_55" data-name="Path 55" d="M103.507,253.8q23.5,24.29,48.294,47.313c-1.061,1.837-2.894,1.2-4.425,1.2q-70.6.051-141.206-.01c-1.725,0-3.857.833-5.019-1.377,16.765-15.179,32.7-31.177,48.488-47.314,6.041-5.773,12.122-11.508,18.115-17.331,8.7-8.455,8.639-8.449,17.109-.237,6.16,5.971,12.426,11.838,18.644,17.751" transform="translate(0 -4.233)" fill="#06e"/>
          <path id="Path_56" data-name="Path 56" d="M531.836,74.434l-76.792-.383c1.616-8,.578-16.091.692-24.135.2-14.092.112-28.19.028-42.284-.03-4.935,1.356-7.583,7.265-7.5,23.1.323,46.206.218,69.308.272q.02,36.731.037,73.462c-.186.183-.366.374-.538.57" transform="translate(-0.138 0.284)" fill="#b2c8ff"/>
          <path id="Path_57" data-name="Path 57" d="M988.01,228.871c-.082,22.181-.346,44.363-.119,66.542.056,5.522-1.624,7.084-7.194,7q-30.766-.449-61.541,0c-5.38.075-6.716-1.643-6.789-6.725-.107-7.486,1.712-15.128-1.146-22.487a26.093,26.093,0,0,0,.064-15.634c2.726-9.558.548-19.323,1.248-28.968q.031-.557.087-1.113c2.554.221,5.108.625,7.665.632q33.525.11,67.051.1.33.335.675.656" transform="translate(-0.277 -4.185)" fill="#d4dfff"/>
          <path id="Path_58" data-name="Path 58" d="M912.432.292q34.094,0,68.187.038c2.475.007,5.217-.833,7.3,1.375q-.009.7-.014,1.4l.078,70.647-.5.5L914.2,74.2l-1.618-.169q-.068-35.469-.134-70.938-.007-1.4-.016-2.807" transform="translate(-0.277 0.283)" fill="#d4dfff"/>
          <path id="Path_59" data-name="Path 59" d="M608.192,228.409l61.721.36c-.09,1.585-1.086,2.42-2.456,3.073-15.123,7.212-22.008,20.181-21.07,35.509,1.06,17.3,11.908,28.917,28.949,34.964H643.12q-42.519,0-85.039-.043c-2.482-.006-5.245.931-7.388-1.254,2.069-2.156,5.038-2.237,7.642-3.119,29.234-9.907,51.462-40.857,49.857-69.49" transform="translate(-0.167 -4.203)" fill="#d4deff"/>
          <path id="Path_60" data-name="Path 60" d="M608.186,228.389c1.606,28.633-20.623,59.582-49.857,69.49-2.6.882-5.572.964-7.642,3.119-6.171.32-12.259,1.984-18.5,1.1q-.01-37.08-.02-74.161,37.655-1.121,75.312,0a1.388,1.388,0,0,0,.711.454" transform="translate(-0.162 -4.183)" fill="#4797ff"/>
          <path id="Path_61" data-name="Path 61" d="M911.264,257.558a26.115,26.115,0,0,1-.065,15.636,37.286,37.286,0,0,1-31.279,28.968c-15.484,2.024-31.115-5.628-38.776-18.727-1.277-2.18-1.09-5.751-4.906-6.022q0-11.96,0-23.919c2.512.041,2.883-2.05,3.581-3.639a35.3,35.3,0,0,1,20.6-19.381c1.391-.532,3.488-.286,3.445-2.649a100.484,100.484,0,0,1,22.115,0c-.157,2.644,2.263,2.633,3.791,3.343,11.568,5.379,19.008,13.935,21.5,26.391" transform="translate(-0.254 -4.179)" fill="#b2c7ff"/>
          <path id="Path_62" data-name="Path 62" d="M1112.494,47.019c2.3.342,3.957-.8,5.748-2.05,12.4-8.671,29.911-9.165,42.539-1.324,20.773,12.9,23.421,40.074,5.7,58.5-15.815,13.385-37.036,13.753-51.286.892-15.37-13.873-17.1-33.723-4.469-51.144,1.058-1.459,2.718-2.71,1.768-4.87" transform="translate(-0.335 -0.462)" fill="#06e"/>
          <path id="Path_63" data-name="Path 63" d="M532.14,227.949q.009,37.08.02,74.161l-76.169-.146,2.213-16.437a2.07,2.07,0,0,0,.186-1.267q.261-1.2.521-2.406c13.5-34.972,37.533-52.663,73.229-53.905" transform="translate(-0.138 -4.194)" fill="#06e"/>
          <path id="Path_64" data-name="Path 64" d="M532.4,73.87q-.02-36.732-.037-73.463l13.823.176a2.653,2.653,0,0,0,3.222.676l2.706.242c1.35,2.331,4.018,2.155,6.113,2.914a78.257,78.257,0,0,1,32.188,21.9c8.735,9.791,13.061,21.724,17.132,33.785q.148,1.99.3,3.978l-.177,2.968c1.583,5.712-.391,7.515-6.585,7.382-22.887-.494-45.786-.422-68.681-.562" transform="translate(-0.162 0.279)" fill="#06e"/>
          <path id="Path_65" data-name="Path 65" d="M228.826,228.517q33.191.007,66.382.015c10.075,0,10.075.009,9.813,10.07-2.05,2.153-1.075,4.81-1.094,7.223-.151,18.793-.18,37.588-.246,56.383-41.095.161-77.051-35.235-74.855-73.691" transform="translate(-0.069 -4.205)" fill="#4797ff"/>
          <path id="Path_66" data-name="Path 66" d="M836.827,72.92C835.76,66.8,835.322,60.5,833.519,54.6c-8.116-26.552-25.736-44-53.027-51.845-2.011-.578-3.958-1.374-5.935-2.068,8.718-.149,17.437-.418,26.156-.426Q855.956.212,911.2.286q-.3,1.284-.589,2.568c-2.753.591-4.212,2.848-6.011,4.607q-29.234,28.565-58.429,57.168c-2.973,2.9-5.441,6.383-9.341,8.291" transform="translate(-0.235 0.282)" fill="#b2c7ff"/>
          <path id="Path_67" data-name="Path 67" d="M760.4,228.89,761.93,244c-2.183,2.125-1.208,4.825-1.223,7.261-.092,15.05-.189,30.1.039,45.152.069,4.514-1.377,6.029-6.049,5.983-20.549-.2-41.1-.086-63.3-.086,3.744-1.553,6.061-2.5,8.365-3.471,14.256-6.016,21.426-17.236,22.458-31.824,1.076-15.228-6.57-26.47-19.429-34.59-1.635-1.031-4.488-.737-4.574-3.659,20.729-.567,41.457-.78,62.183.121" transform="translate(-0.21 -4.2)" fill="#d4dfff"/>
          <path id="Path_68" data-name="Path 68" d="M380.446,74H307.91l72.438-70.99V74.093l.1-.088" transform="translate(-0.093 0.228)" fill="#4698ff"/>
          <path id="Path_69" data-name="Path 69" d="M454.081,75.522c.876,3.567-2.388,4.746-4.207,6.546q-33.954,33.613-68.086,67.054-.609-.019-1.215-.075-.053-36.811-.106-73.621l-.1.089,73.712.006" transform="translate(-0.115 -1.196)" fill="#4698ff"/>
          <path id="Path_70" data-name="Path 70" d="M303.7,302.41c.067-18.794.095-37.589.246-56.383.02-2.414-.957-5.069,1.094-7.223,7.122,34.324,27.779,55.583,63.043,62.758a4.507,4.507,0,0,1,1.207.685l-65.589.164" transform="translate(-0.092 -4.407)" fill="#b2c8ff"/>
          <path id="Path_71" data-name="Path 71" d="M366.6,152.492c-11.417,3.588-22.714,7.261-32.4,14.7-16.522,12.693-25.948,29.3-29.356,49.739a7.424,7.424,0,0,1-2.252-6.632c1.614-1.132,1.328-2.832,1.324-4.414q-.063-26.985-.161-53.97l-.154.071,63,.5" transform="translate(-0.092 -2.699)" fill="#b2c8ff"/>
          <path id="Path_72" data-name="Path 72" d="M607.551,60.1c-4.071-12.06-8.4-23.994-17.133-33.786a78.252,78.252,0,0,0-32.188-21.9c-2.1-.76-4.763-.582-6.113-2.914C554.993-.94,558.434.342,561.583.306,575.455.148,589.331.262,603.206.223c3.043-.009,5.592.051,5.564,4.2-.119,17.745-.055,35.491-.131,53.237,0,.814-.709,1.624-1.088,2.436" transform="translate(-0.167 0.287)" fill="#b2c7ff"/>
          <path id="Path_73" data-name="Path 73" d="M1167.605,254.239l-26-25.6,36.231-.149c.9,10.231-4.428,18.081-10.235,25.751" transform="translate(-0.346 -4.204)" fill="#e9eeff"/>
          <path id="Path_74" data-name="Path 74" d="M1138.953,228.636l-25.995,25.6c-5.8-7.669-11.135-15.52-10.235-25.75l36.23.15" transform="translate(-0.335 -4.204)" fill="#e9eeff"/>
          <path id="Path_75" data-name="Path 75" d="M607.687,68.326l.177-2.968,2.429.194a2.481,2.481,0,0,1-2.606,2.774" transform="translate(-0.184 -0.998)" fill="#b8b5fe"/>
          <path id="Path_76" data-name="Path 76" d="M987.928,3.135q.006-.7.014-1.4c.381,0,.761.009,1.138.02l1.539,1.365-2.691.014" transform="translate(-0.3 0.253)" fill="#fdfdfe"/>
          <path id="Path_77" data-name="Path 77" d="M910.651,2.855q.292-1.284.589-2.569.6.031,1.193.008.008,1.4.015,2.808l-1.8-.246" transform="translate(-0.276 0.281)" fill="#fdfdfe"/>
          <path id="Path_78" data-name="Path 78" d="M549.41,1.257a2.653,2.653,0,0,1-3.222-.676,2.64,2.64,0,0,1,3.222.676" transform="translate(-0.166 0.281)" fill="#b8b5fe"/>
          <path id="Path_79" data-name="Path 79" d="M302.305,1.472q.061-.621.071-1.245c.542.3,1.083.6,1.624.891q-.846.175-1.694.354" transform="translate(-0.092 0.282)" fill="#b7b4fe"/>
          <path id="Path_80" data-name="Path 80" d="M380.026,189.864c21.835,2.1,33.717,11.926,37.579,31.093,4.349,21.584-12.124,42.072-34.675,43.135-.943.044-1.881.17-2.822.258-22.419-1.675-37.728-16.756-37.771-37.21s14.907-35.237,37.69-37.276" transform="translate(-0.104 -3.445)" fill="#fdfdfe"/>
          <path id="Path_81" data-name="Path 81" d="M200.218,101.751C197.4,96,193.06,91.1,191.555,84.56c-3.6-15.628,2.109-31.125,15.415-40.188,12.046-8.206,29.965-8.16,42.668.113,1.96,1.276,3.909,2.568,5.864,3.853,10.72,13.309,14.826,27.679,6.682,43.67-10.446,20.513-37.035,26.756-56.037,13.355-1.889-1.332-3.467-3.177-5.929-3.613" transform="translate(-0.058 -0.465)" fill="#fdfdfe"/>
          <path id="Path_82" data-name="Path 82" d="M303.734,151.917q.086,26.985.161,53.971c0,1.58.29,3.28-1.324,4.413-7.8-30.241-27.042-48.656-60.041-58.383Z" transform="translate(-0.074 -2.699)" fill="#fdfdfe"/>
          <path id="Path_83" data-name="Path 83" d="M910.629,2.907l1.8.246q.066,35.467.133,70.937.074,1.309.149,2.618-.136,34.819-.272,69.639l-2.519-.062c-25.373-22.741-48.881-47.33-73.322-70.994q.126-1.16.251-2.319c3.9-1.907,6.369-5.394,9.342-8.29q29.279-28.521,58.43-57.168c1.8-1.759,3.257-4.015,6.011-4.607" transform="translate(-0.254 0.23)" fill="#fefefe"/>
          <path id="Path_84" data-name="Path 84" d="M702.547,151.915c-12.787-1.755-25.553-1.945-38.287.471-1.851-2.664-4.681-1.6-7.094-1.61-16.149-.092-32.3-.048-48.449-.048q0-31.994.011-63.987l1.495.11c5.641,16.556,19.116,26.365,36.222,26.368,16.863,0,30.662-10.075,36.176-26.527.4-1.189.728-2.124,2.062-2.393,6.063,35.516,28.544,58.817,63.047,65.345-9.933,2.345-20.032.377-30.019,1.127-5.053.379-10.282-1.366-15.163,1.144" transform="translate(-0.185 -1.37)" fill="#fdfdfe"/>
          <path id="Path_85" data-name="Path 85" d="M836.579,76.743c24.44,23.665,47.948,48.253,73.318,70.994-.022.442-.023.884-.009,1.327l-1.579,1.273-58.215.259c-1.57-1.906-3.029-1.734-4.394.225l-9.854-.173-2.838-.323c-.488-.663-.93-.589-1.335.08l-4.241.271c-1.565-2.019-3.054-1.786-4.485.147-9.628-.1-19.258-.12-28.884-.324-3.385-.072-7.1.388-9.352-3.131,9.086-5.1,18.79-9.056,26.7-16.236,16.25-14.76,24-33.053,25.172-54.389" transform="translate(-0.238 -1.222)" fill="#b2c7ff"/>
          <path id="Path_86" data-name="Path 86" d="M702.575,153.225c4.881-2.51,10.11-.765,15.163-1.144,9.987-.75,20.086,1.218,30.019-1.127l12.967,1.212q-.031,26.174-.038,52.348c0,1.989-.652,4.186,1.224,5.828l-1.464,9.482c-1.838-8.479-3.139-17.1-7.094-25.006-10.055-20.1-25.941-33.488-47.817-40.033a16.908,16.908,0,0,1-2.96-1.56" transform="translate(-0.213 -2.68)" fill="#d4dfff"/>
          <path id="Path_87" data-name="Path 87" d="M761.928,210.3c-1.875-1.642-1.221-3.84-1.224-5.828q-.036-26.174.037-52.348,5.457-.294,10.914-.588c3.152-.143,6.851,2.34,9.165-1.829q1.943-.459,3.886-.919c2.246,3.517,5.965,3.057,9.351,3.129,9.626.2,19.256.228,28.886.323a2.909,2.909,0,0,0,.036.8c-32.411,6.735-52.426,26.165-61.052,57.26" transform="translate(-0.231 -2.638)" fill="#fdfdfe"/>
          <path id="Path_88" data-name="Path 88" d="M780.823,149.724c-2.314,4.169-6.013,1.686-9.165,1.829a22.126,22.126,0,0,1,9.165-1.829" transform="translate(-0.234 -2.656)" fill="#b8b5fe"/>
          <path id="Path_89" data-name="Path 89" d="M987.335,226.725q-33.525-.035-67.051-.1c-2.555-.009-5.109-.413-7.665-.631l-.465-7.783q.033-5.291.063-10.586l.309-55.574,75.281-.38c.144,25.019,1.06,50.044-.473,75.052" transform="translate(-0.277 -2.695)" fill="#06e"/>
          <path id="Path_90" data-name="Path 90" d="M987.808,150.228l-75.281.38-1.479-.1q.036-.625.037-1.249l1.373-1.435q.135-34.819.27-69.638l1.434-.03c2.045,1.9,4.136,3.756,6.132,5.7q33.762,32.938,67.5,65.9l.014.468" transform="translate(-0.276 -1.249)" fill="#d4dfff"/>
          <path id="Path_91" data-name="Path 91" d="M987.795,149.713q-33.746-32.953-67.5-65.9c-2-1.948-4.087-3.8-6.134-5.7q.02-1.21.04-2.421l73.28.045q.156,36.989.314,73.979" transform="translate(-0.277 -1.201)" fill="#4698ff"/>
          <path id="Path_92" data-name="Path 92" d="M987.928,3.163l2.691-.014q29.648,28.732,59.306,57.454c4.145,4.008,8.42,7.885,14.124,13.211-26.876,0-51.461,0-76.045,0q-.036-35.328-.076-70.649" transform="translate(-0.3 0.225)" fill="#fefefe"/>
          <path id="Path_93" data-name="Path 93" d="M103.518,253.019c-6.218-5.913-12.484-11.78-18.644-17.751-8.469-8.211-8.407-8.218-17.109.237-5.992,5.822-12.073,11.557-18.115,17.33-10.633-9.162-14.32-24.882-9.073-38.686,4.959-13.051,19.058-22.984,32-23.937,24.389-1.795,40.612,13.771,41.972,36.821a31.581,31.581,0,0,1-11.028,25.986" transform="translate(-0.012 -3.449)" fill="#fdfdfe"/>
          <path id="Path_94" data-name="Path 94" d="M608.67,152.035c16.15,0,32.3-.044,48.449.048,2.413.014,5.242-1.054,7.094,1.61-12.111,4.648-23.844,9.944-33.116,19.256-12.952,13.01-21.014,28.287-22.405,46.656a63.928,63.928,0,0,1-1.24,6.822q-37.657-1.106-75.312,0c-35.7,1.242-59.731,18.934-73.229,53.906-3.04-2.261-1.843-5.52-1.85-8.361q-.148-59.9-.126-119.79l11.656-1.393c2.4,2.246,5.385,1.179,8.08,1.184q66,.113,132,.057" transform="translate(-0.139 -2.677)" fill="#d4dfff"/>
          <path id="Path_95" data-name="Path 95" d="M610.221,86.812l-1.495-.111c-1.435-1.214-1.589-2.646-.756-4.362,1.9.994,2.149,2.7,2.25,4.472" transform="translate(-0.184 -1.332)" fill="#d7d4fe"/>
          <path id="Path_96" data-name="Path 96" d="M458.391,285.389a2.055,2.055,0,0,1-.186,1.267,5.659,5.659,0,0,1-.347-.968c-.012-.065.346-.2.533-.3" transform="translate(-0.139 -5.323)" fill="#d7d4fe"/>
          <path id="Path_97" data-name="Path 97" d="M912.132,218.221,912.6,226c-.037.369-.065.739-.087,1.112-8.816-1.2-17.674-1.052-26.534-.769a100.656,100.656,0,0,0-22.114,0q-13.862.5-27.726,1.013-.138-37.614-.274-75.229,4.928.087,9.855.172c1.295,1.308,2.882,1.279,4.535.959,30.955,6.463,50.5,24.962,59.729,54.36q1.075,5.3,2.151,10.6" transform="translate(-0.254 -2.704)" fill="#4797ff"/>
          <path id="Path_98" data-name="Path 98" d="M836.135,228.847q13.863-.507,27.727-1.013c.041,2.366-2.056,2.119-3.447,2.653a35.292,35.292,0,0,0-20.6,19.38c-.7,1.589-1.07,3.68-3.581,3.639q-.051-12.33-.1-24.66" transform="translate(-0.254 -4.192)" fill="#fdfdfe"/>
          <path id="Path_99" data-name="Path 99" d="M823,153.078a2.945,2.945,0,0,1-.037-.8c1.429-1.931,2.917-2.164,4.483-.145a4.866,4.866,0,0,1-4.446.946" transform="translate(-0.25 -2.676)" fill="#b8b5fe"/>
          <path id="Path_100" data-name="Path 100" d="M831.688,151.872c.4-.67.847-.743,1.334-.08l-.658.175Z" transform="translate(-0.252 -2.688)" fill="#b8b5fe"/>
          <path id="Path_101" data-name="Path 101" d="M885.99,227.832c8.861-.283,17.719-.43,26.535.768-.7,9.646,1.479,19.41-1.248,28.968-2.488-12.458-9.928-21.014-21.5-26.393-1.527-.71-3.948-.7-3.791-3.343" transform="translate(-0.269 -4.188)" fill="#fdfdfe"/>
          <path id="Path_102" data-name="Path 102" d="M914.2,75.686q-.02,1.21-.04,2.42l-1.432.03q-.072-1.31-.147-2.619l1.618.169" transform="translate(-0.277 -1.198)" fill="#b5b3fd"/>
          <path id="Path_103" data-name="Path 103" d="M912.457,149.222l-1.373,1.434a5.745,5.745,0,0,0-1.157-.17q-.025-.663.007-1.325l2.522.061" transform="translate(-0.276 -2.645)" fill="#fdfdfe"/>
          <path id="Path_104" data-name="Path 104" d="M909.985,207.614c-9.224-29.4-28.773-47.9-59.729-54.359a5.668,5.668,0,0,1-.142-1.183l58.215-.257q1.35.074,2.7.143l1.479.1L912.2,207.63l-2.214-.016" transform="translate(-0.258 -2.697)" fill="#fdfdfe"/>
          <path id="Path_105" data-name="Path 105" d="M850.113,152.05a5.675,5.675,0,0,0,.142,1.183c-1.652.32-3.24.348-4.535-.96,1.364-1.957,2.822-2.129,4.393-.224" transform="translate(-0.257 -2.676)" fill="#b8b5fe"/>
          <path id="Path_106" data-name="Path 106" d="M911.047,151.933q-1.351-.071-2.7-.143l1.58-1.275a5.607,5.607,0,0,1,1.159.169q0,.626-.037,1.25" transform="translate(-0.276 -2.672)" fill="#b8b5fe"/>
          <path id="Path_107" data-name="Path 107" d="M910,208.733l2.214.016q-.03,5.294-.062,10.587-1.077-5.3-2.152-10.6" transform="translate(-0.276 -3.816)" fill="#ebe9fe"/>
        </g>
      </g>
    </g>
  </g>
</svg>
