<?xml version="1.0" encoding="UTF-8"?>
<svg id="Layer_1" data-name="Layer 1" xmlns="http://www.w3.org/2000/svg" viewBox="0 0 40 40">
  <defs>
    <style>
      .cls-1 {
        fill: #16e;
      }
    </style>
  </defs>
  <g id="star">
    <g id="Group_39" data-name="Group 39">
      <g id="Group_38" data-name="Group 38">
        <path id="Path_116" data-name="Path 116" class="cls-1" d="m32.38,11.67l-6.62-.96-2.96-6c-.76-1.54-2.63-2.18-4.18-1.42-.61.3-1.11.8-1.42,1.42l-2.96,6-6.62.96c-1.7.25-2.88,1.83-2.64,3.54.1.68.42,1.3.91,1.78l4.79,4.67-1.13,6.59c-.29,1.7.85,3.31,2.55,3.6.67.12,1.37,0,1.98-.31l5.92-3.11,5.92,3.11c1.53.8,3.41.21,4.21-1.31.32-.61.43-1.3.31-1.97l-1.13-6.59,4.79-4.67c1.23-1.2,1.25-3.18.05-4.41-.48-.49-1.1-.81-1.78-.91Zm-.13,3.4l-5.29,5.16c-.31.31-.46.75-.38,1.18l1.25,7.28c.04.24-.12.47-.36.52-.1.02-.2,0-.29-.05l-6.54-3.44c-.39-.2-.85-.2-1.24,0l-6.54,3.44c-.22.12-.49.03-.6-.18-.05-.09-.06-.19-.05-.29l1.25-7.28c.07-.43-.07-.88-.38-1.18l-5.29-5.16c-.18-.17-.19-.45-.02-.63.07-.07.16-.12.27-.14l7.31-1.06c.44-.06.81-.34,1.01-.73l3.27-6.63c.11-.22.37-.31.59-.2.09.04.16.12.2.2l3.26,6.63c.19.39.57.67,1.01.73l7.31,1.06c.24.03.41.26.38.5-.01.1-.06.19-.13.26Z"/>
      </g>
    </g>
    <g id="Group_41" data-name="Group 41">
      <g id="Group_40" data-name="Group 40">
        <path id="Path_117" data-name="Path 117" class="cls-1" d="m10.5,3.64l-1.6-2.2c-.45-.58-1.29-.69-1.88-.23-.56.43-.68,1.22-.29,1.81l1.6,2.2c.45.58,1.29.69,1.88.23.56-.43.68-1.22.29-1.81Z"/>
      </g>
    </g>
    <g id="Group_43" data-name="Group 43">
      <g id="Group_42" data-name="Group 42">
        <path id="Path_118" data-name="Path 118" class="cls-1" d="m5.2,23.36c-.23-.7-.98-1.09-1.68-.86l-2.64.86c-.69.25-1.05,1.02-.8,1.72.24.66.95,1.02,1.62.83l2.64-.86c.7-.23,1.08-.98.86-1.68Z"/>
      </g>
    </g>
    <g id="Group_45" data-name="Group 45">
      <g id="Group_44" data-name="Group 44">
        <path id="Path_119" data-name="Path 119" class="cls-1" d="m32.96,1.15c-.6-.43-1.43-.3-1.87.3l-1.6,2.2c-.41.61-.26,1.44.36,1.86.58.4,1.37.27,1.81-.29l1.6-2.2c.43-.6.3-1.43-.3-1.87Z"/>
      </g>
    </g>
    <g id="Group_47" data-name="Group 47">
      <g id="Group_46" data-name="Group 46">
        <path id="Path_120" data-name="Path 120" class="cls-1" d="m39.12,23.36l-2.64-.86c-.69-.25-1.46.1-1.72.8-.25.69.1,1.46.8,1.72.03.01.06.02.09.03l2.64.86c.71.2,1.45-.21,1.65-.92.19-.67-.17-1.38-.83-1.62Z"/>
      </g>
    </g>
    <g id="Group_49" data-name="Group 49">
      <g id="Group_48" data-name="Group 48">
        <path id="Path_121" data-name="Path 121" class="cls-1" d="m20,33.72c-.74,0-1.34.6-1.34,1.34v2.71c0,.74.6,1.34,1.34,1.34s1.34-.6,1.34-1.34v-2.72c0-.74-.6-1.33-1.34-1.33Z"/>
      </g>
    </g>
  </g>
</svg>