<?xml version="1.0" encoding="UTF-8"?>
<svg id="Layer_1" data-name="Layer 1" xmlns="http://www.w3.org/2000/svg" viewBox="0 0 40 40">
  <defs>
    <style>
      .cls-1 {
        fill: #16e;
      }
    </style>
  </defs>
  <g id="shuttle">
    <path id="Path_111" data-name="Path 111" class="cls-1" d="m39.95,2.99c-.08-1.58-1.35-2.85-2.94-2.94-5.33-.32-10.66.74-15.46,3.1-3.4,1.86-6.4,4.35-8.86,7.34l-.09.11-5.85.45c-.96.07-1.83.58-2.35,1.38L.39,18.49c-.65.98-.38,2.31.6,2.97.26.17.55.28.86.33l4.93.76c-.02.1-.03.19-.05.29-.16.99.16,1.99.87,2.7l6.87,6.87c.58.58,1.37.91,2.2.91.17,0,.33-.01.5-.04l.29-.05.76,4.93c.18,1.17,1.27,1.97,2.44,1.79.31-.05.6-.16.86-.33l6.04-4c.8-.53,1.31-1.4,1.38-2.35l.45-5.85.11-.09c2.99-2.46,5.49-5.47,7.35-8.86,2.35-4.8,3.42-10.13,3.1-15.46h0Zm-13.69,30.68l-5.78,3.82-.74-4.8c2.54-.77,4.96-1.92,7.16-3.41l-.29,3.81c-.02.24-.14.45-.34.58Zm-10.14-2.92l-6.86-6.86c-.17-.17-.25-.42-.22-.66.2-1.18.51-2.35.91-3.48l10.3,10.3c-1.13.41-2.29.71-3.47.92-.24.04-.49-.04-.66-.22h0ZM6.92,13.4l3.81-.29c-1.49,2.2-2.64,4.61-3.41,7.16l-4.8-.74,3.82-5.77c.13-.2.34-.32.58-.34Zm21.09,12.12c-1.66,1.4-3.48,2.59-5.42,3.54l-11.65-11.64c.96-1.94,2.15-3.76,3.54-5.42,2.26-2.75,5.02-5.05,8.14-6.77,4.43-2.16,9.34-3.14,14.26-2.84.39.02.71.33.73.73.3,4.92-.67,9.83-2.84,14.26-1.71,3.12-4.01,5.89-6.76,8.15Z"/>
    <path id="Path_112" data-name="Path 112" class="cls-1" d="m27.41,18.44c3.23,0,5.85-2.62,5.84-5.85,0-3.23-2.62-5.85-5.85-5.84-3.23,0-5.85,2.62-5.84,5.85,0,1.55.62,3.04,1.71,4.13,1.1,1.1,2.59,1.71,4.14,1.71Zm-2.48-8.33c1.37-1.37,3.59-1.37,4.97,0,1.37,1.37,1.37,3.59,0,4.96s-3.59,1.37-4.97,0c-.66-.66-1.03-1.55-1.03-2.48,0-.93.37-1.83,1.03-2.48Z"/>
    <path id="Path_113" data-name="Path 113" class="cls-1" d="m1.23,32.93c.31,0,.61-.12.83-.34l3.82-3.82c.45-.47.43-1.21-.04-1.65-.45-.43-1.16-.43-1.62,0l-3.82,3.82c-.46.46-.46,1.2,0,1.66.22.22.52.34.83.34h0Z"/>
    <path id="Path_114" data-name="Path 114" class="cls-1" d="m9.39,30.62c-.46-.46-1.2-.46-1.66,0L.38,37.96c-.48.43-.51,1.17-.08,1.65.43.48,1.17.51,1.65.08.03-.03.05-.05.08-.08l7.35-7.35c.46-.46.46-1.2,0-1.65Z"/>
    <path id="Path_115" data-name="Path 115" class="cls-1" d="m11.23,34.12l-3.82,3.83c-.47.45-.49,1.19-.04,1.65.45.47,1.19.49,1.66.04.01-.01.03-.03.04-.04l3.82-3.82c.47-.45.49-1.19.04-1.65-.45-.47-1.19-.49-1.66-.04-.01.01-.03.03-.04.04h0Z"/>
  </g>
</svg>