<?xml version="1.0" encoding="UTF-8"?>
<svg id="Layer_1" data-name="Layer 1" xmlns="http://www.w3.org/2000/svg" viewBox="0 0 40 40">
  <defs>
    <style>
      .cls-1 {
        fill: #16e;
      }
    </style>
  </defs>
  <g id="security">
    <path id="Path_109" data-name="Path 109" class="cls-1" d="m36.46,10.3c-.02-1.08-.04-2.1-.04-3.09,0-.77-.62-1.4-1.37-1.4h0c-5.88,0-10.36-1.72-14.09-5.41-.53-.53-1.38-.53-1.92,0-3.73,3.69-8.21,5.42-14.08,5.42-.76,0-1.37.63-1.37,1.4,0,.99-.02,2.01-.04,3.09-.19,10.05-.45,23.81,16,29.62.29.1.61.1.9,0,16.46-5.81,16.2-19.58,16.01-29.63Zm-16.46,26.81C5.89,31.89,6.1,20.45,6.29,10.35c.01-.61.02-1.19.03-1.77,5.03-.05,9.88-1.93,13.68-5.28,3.8,3.36,8.65,5.23,13.68,5.28,0,.58.02,1.16.03,1.77.19,10.11.4,21.54-13.71,26.76Z"/>
    <path id="Path_110" data-name="Path 110" class="cls-1" d="m24.73,15.14l-6.64,6.76-2.83-2.89c-.54-.55-1.41-.55-1.94,0s-.54,1.43,0,1.98l3.8,3.87c.54.55,1.41.55,1.94,0h0s7.61-7.75,7.61-7.75c.54-.55.54-1.43,0-1.98s-1.41-.55-1.94,0h0Z"/>
  </g>
</svg>