<svg xmlns="http://www.w3.org/2000/svg" width="158.1" height="36.1" viewBox="0 0 158.1 36.1">
  <g id="Logo_top_bar" transform="translate(-140 -24)">
    <g id="Group_22" data-name="Group 22" transform="translate(188 28)">
      <path id="Path_29" data-name="Path 29" d="M85.111,17.1H95.733V15.128H85.111V5.794h11.5V3.822H82.994v24.8H96.609V26.649h-11.5Z" transform="translate(-82.994 -3.822)" fill="#003" stroke="#003" stroke-width="0.2"/>
      <path id="Path_30" data-name="Path 30" d="M123.68,15.318a7.907,7.907,0,0,0-7.105,3.866l-.374.6V15.75h-1.972v24.8H116.2V29.318l.374.6a7.906,7.906,0,0,0,7.105,3.866,8.769,8.769,0,0,0,6.43-2.677,8.977,8.977,0,0,0,2.661-6.554A8.979,8.979,0,0,0,130.11,18a8.771,8.771,0,0,0-6.43-2.677m5.007,14.432a7.38,7.38,0,0,1-10.374,0,7.138,7.138,0,0,1-2.113-5.2,7.135,7.135,0,0,1,2.113-5.2,7.38,7.38,0,0,1,10.374,0,7.139,7.139,0,0,1,2.111,5.2,7.141,7.141,0,0,1-2.111,5.2" transform="translate(-95.828 -8.549)" fill="#003" stroke="#003" stroke-width="0.2"/>
      <rect id="Rectangle_19" data-name="Rectangle 19" width="1.972" height="17.597" transform="translate(40.768 7.201)" fill="#003" stroke="#003" stroke-width="0.2"/>
      <path id="Path_31" data-name="Path 31" d="M153.019,5.349a1.518,1.518,0,0,0-1.527,1.526A1.526,1.526,0,1,0,154.1,5.794a1.461,1.461,0,0,0-1.081-.445" transform="translate(-111.139 -4.45)" fill="#003" stroke="#003" stroke-width="0.2"/>
      <path id="Path_32" data-name="Path 32" d="M177.369,11.622h-2.648l-8.856,8.234V5.278h-1.972V29.22h1.972V20.262l9.29,8.957h2.588L168.3,20.058Z" transform="translate(-116.235 -4.421)" fill="#003" stroke="#003" stroke-width="0.2"/>
      <path id="Path_33" data-name="Path 33" d="M197.008,15.319A8.773,8.773,0,0,0,190.578,18a8.98,8.98,0,0,0-2.661,6.554,8.977,8.977,0,0,0,2.661,6.554,8.769,8.769,0,0,0,6.43,2.677,7.9,7.9,0,0,0,7.105-3.866l.374-.6v4.03h1.972v-17.6h-1.972v4.029l-.374-.6a7.907,7.907,0,0,0-7.105-3.866m7.479,9.231a7.139,7.139,0,0,1-2.113,5.2,7.381,7.381,0,0,1-10.374,0,7.141,7.141,0,0,1-2.111-5.2,7.141,7.141,0,0,1,2.111-5.2,7.381,7.381,0,0,1,10.374,0,7.135,7.135,0,0,1,2.113,5.2" transform="translate(-126.105 -8.549)" fill="#003" stroke="#003" stroke-width="0.2"/>
      <path id="Path_34" data-name="Path 34" d="M235.4,24.359l-3.1-.885a10.065,10.065,0,0,1-2.7-1.174,2.378,2.378,0,0,1-1.188-2.082,2.531,2.531,0,0,1,1.209-2.242,5.006,5.006,0,0,1,2.777-.758c2.172,0,3.657.818,4.416,2.434l1.624-.944a5.917,5.917,0,0,0-2.289-2.428,7.194,7.194,0,0,0-3.75-.962,6.433,6.433,0,0,0-4.281,1.428,4.444,4.444,0,0,0-1.676,3.518,3.949,3.949,0,0,0,1.026,2.831A5.558,5.558,0,0,0,230,24.617l3.1.885a9.622,9.622,0,0,1,2.686,1.187,2.428,2.428,0,0,1,1.172,2.112,2.551,2.551,0,0,1-1.288,2.351,5.945,5.945,0,0,1-3.056.73,6.048,6.048,0,0,1-3.223-.84,4.43,4.43,0,0,1-1.814-2.091l-1.661.978a6.009,6.009,0,0,0,2.394,2.732,7.914,7.914,0,0,0,4.3,1.121,7.181,7.181,0,0,0,4.575-1.4A4.38,4.38,0,0,0,238.93,28.8a4.123,4.123,0,0,0-1.013-2.9,5.383,5.383,0,0,0-2.521-1.543" transform="translate(-141.718 -8.549)" fill="#003" stroke="#003" stroke-width="0.2"/>
      <path id="Path_35" data-name="Path 35" d="M262.083,14.482v-1.9H256.9V7.612l-1.972.6v4.373h-3.783v1.9h3.783V25.593c0,2,.6,3.373,1.792,4.074s2.992.881,5.367.54V28.5c-1.068.042-1.971.057-2.682.045a2.483,2.483,0,0,1-1.876-.714,3.242,3.242,0,0,1-.629-2.243V14.482Z" transform="translate(-152.083 -5.38)" fill="#003" stroke="#003" stroke-width="0.2"/>
    </g>
    <g id="Group_23" data-name="Group 23" transform="translate(140 24)">
      <path id="Path_36" data-name="Path 36" d="M4.428,12.365a1.635,1.635,0,0,0,0-2.31A3.976,3.976,0,0,1,3.339,6.447,3.932,3.932,0,0,1,6.446,3.339a4.032,4.032,0,0,1,3.642,1.125l.261.247c.865.822,1.6,1.545,2.239,2.179,2.77,2.736,4.3,4.244,7.513,4.244A7.4,7.4,0,0,0,25.367,8.95a1.632,1.632,0,0,0-1.154-2.786h0a1.622,1.622,0,0,0-1.155.478A4.153,4.153,0,0,1,20.1,7.867c-1.749,0-2.343-.462-5.255-3.339C14.2,3.892,13.469,3.17,12.6,2.34l-.229-.216A7.272,7.272,0,0,0,7.219,0a7.4,7.4,0,0,0-1.38.13A7.219,7.219,0,0,0,.131,5.838a7.294,7.294,0,0,0,1.988,6.528,1.672,1.672,0,0,0,2.31,0" transform="translate(0 0)" fill="#06f"/>
      <path id="Path_37" data-name="Path 37" d="M33.034,29.451a1.633,1.633,0,0,0-2.31,2.309,3.978,3.978,0,0,1,1.09,3.609,3.933,3.933,0,0,1-3.108,3.108,3.973,3.973,0,0,1-3.643-1.127l-.259-.244c-.828-.787-1.534-1.484-2.223-2.164-2.785-2.752-4.311-4.26-7.528-4.26a7.4,7.4,0,0,0-5.267,2.182,1.633,1.633,0,0,0,2.31,2.309,4.152,4.152,0,0,1,2.957-1.225c1.748,0,2.339.458,5.224,3.308.655.647,1.4,1.381,2.281,2.219l.228.215a7.225,7.225,0,0,0,5.148,2.125,7.384,7.384,0,0,0,1.38-.13,7.219,7.219,0,0,0,5.709-5.708A7.294,7.294,0,0,0,33.034,29.451Z" transform="translate(-3.154 -9.816)" fill="#06f"/>
      <path id="Path_38" data-name="Path 38" d="M11.21,30.275a1.638,1.638,0,0,0-1.155.461,3.979,3.979,0,1,1-5.591-5.661l.246-.26c.835-.88,1.581-1.634,2.18-2.24,2.735-2.769,4.242-4.294,4.242-7.511A7.392,7.392,0,0,0,8.95,9.8a1.632,1.632,0,0,0-2.308,2.309,4.154,4.154,0,0,1,1.225,2.957c0,1.748-.458,2.339-3.307,5.224-.657.665-1.388,1.4-2.22,2.281l-.216.229A7.243,7.243,0,0,0,5.837,35.033a7.425,7.425,0,0,0,1.383.13,7.222,7.222,0,0,0,5.144-2.119,1.615,1.615,0,0,0-1.154-2.77" transform="translate(0 -3.163)" fill="#06f"/>
      <path id="Path_39" data-name="Path 39" d="M31.759,4.428a3.939,3.939,0,0,1,2.812-1.166,4.219,4.219,0,0,1,.8.077,3.932,3.932,0,0,1,3.108,3.108,4.026,4.026,0,0,1-1.125,3.642l-.247.261c-.8.846-1.515,1.566-2.138,2.2l-.04.041c-2.737,2.769-4.244,4.295-4.244,7.512a7.4,7.4,0,0,0,2.181,5.266,1.671,1.671,0,0,0,2.309,0,1.633,1.633,0,0,0,0-2.31A4.154,4.154,0,0,1,33.949,20.1c0-1.748.462-2.343,3.338-5.254.6-.608,1.348-1.364,2.189-2.25l.215-.229A7.244,7.244,0,1,0,29.45,2.119a1.634,1.634,0,0,0,0,2.309,1.672,1.672,0,0,0,2.309,0" transform="translate(-9.815 0)" fill="#06f"/>
    </g>
  </g>
</svg>
