<?xml version="1.0" encoding="UTF-8"?>
<svg id="Layer_1" data-name="Layer 1" xmlns="http://www.w3.org/2000/svg" viewBox="0 0 40 40">
  <defs>
    <style>
      .cls-1 {
        fill: #687992;
      }
    </style>
  </defs>
  <path class="cls-1" d="m18.02,14.31c3.06,0,5.55,2.42,5.67,5.45,1.36-.92,3.01-1.46,4.78-1.46.18,0,.36.02.54.03l1.48-1.36c.58-.55.71-1.42.32-2.11l-1.93-3.34c-.4-.7-1.23-1.02-2-.78l-2.27.72c-.75-.59-1.59-1.07-2.47-1.44l-.52-2.33c-.18-.78-.86-1.33-1.66-1.34h-3.87c-.79,0-1.48.56-1.66,1.33l-.53,2.33c-.89.36-1.72.85-2.47,1.44l-2.27-.72c-.76-.24-1.59.08-1.99.77l-1.94,3.35c-.39.69-.25,1.57.33,2.11l1.75,1.61c-.06.48-.09.95-.09,1.43,0,.48.03.96.09,1.43l-1.76,1.61c-.58.55-.71,1.42-.32,2.11l1.93,3.34c.4.7,1.23,1.02,2,.78l2.27-.72c.75.59,1.59,1.07,2.47,1.44l.52,2.33c.17.78.86,1.33,1.66,1.34h3.87c.79,0,1.48-.56,1.66-1.33l.08-.34c-1.09-1.43-1.74-3.21-1.74-5.15,0-.52.05-1.04.14-1.53-.64.25-1.34.4-2.07.4h0c-3.14,0-5.69-2.55-5.69-5.69s2.55-5.69,5.69-5.69Z"/>
  <path class="cls-1" d="m28.81,20.33c-.11,0-.22-.02-.33-.02-3.6,0-6.51,2.91-6.51,6.51h0c0,1.05.25,2.03.69,2.91,1.07,2.13,3.27,3.6,5.81,3.6h0c3.6,0,6.51-2.91,6.51-6.51,0-3.48-2.74-6.32-6.18-6.5Zm1.75,8.72c-.06.12-.14.23-.22.34-.28.34-.66.58-1.09.7-.16.02-.28.17-.27.33,0,0,0,0,0,.01.01.19,0,.38,0,.58.02.13-.08.25-.21.27-.02,0-.04,0-.05,0-.2,0-.41,0-.62,0-.14.01-.26-.09-.27-.23,0-.02,0-.04,0-.06,0-.14,0-.28,0-.42,0-.31-.01-.32-.31-.37-.38-.05-.75-.16-1.1-.32-.27-.13-.3-.2-.22-.48.03-.11.06-.21.09-.32.03-.11.06-.22.09-.32.08-.25.15-.28.37-.16.38.19.8.32,1.23.37.18.02.35,0,.52-.03.09-.02.19-.04.28-.08.33-.12.49-.48.38-.8,0,0-.01-.01-.02-.02-.04-.11-.11-.21-.21-.27-.14-.11-.29-.2-.46-.27-.43-.16-.85-.35-1.26-.56-.65-.31-1.04-.98-1-1.7.03-.81.58-1.51,1.36-1.73.33-.12.33-.12.34-.47v-.35c0-.26.05-.31.31-.32h.24q.56,0,.56.56c0,.39,0,.4.39.46.3.05.59.14.87.26.14.04.21.19.17.32,0,0,0,.01,0,.02-.07.24-.13.48-.21.72s-.15.26-.36.16c-.43-.21-.9-.3-1.38-.27-.13,0-.25.03-.37.07-.27.09-.42.38-.33.66.04.11.11.2.2.27.18.14.38.25.6.33.37.15.74.31,1.09.5.1.05.18.11.27.17.76.56,1.02,1.59.58,2.46Z"/>
</svg>