<svg xmlns="http://www.w3.org/2000/svg" width="21.677" height="24" viewBox="0 0 21.677 24">
  <g id="pdf_icon" transform="translate(-24.774)">
    <path id="Path_2785" data-name="Path 2785" d="M27.484,267.356h-.774a1.935,1.935,0,0,1-1.935-1.935,1.161,1.161,0,0,1,1.161-1.161h1.548v3.1Z" transform="translate(0 -251.872)" fill="#bd4150"/>
    <path id="Path_2786" data-name="Path 2786" d="M97.054,0H82.732l-.4.774V23.625h18.205l.774-.4V4.258Z" transform="translate(-54.861 0)" fill="#eceaec"/>
    <path id="Path_2787" data-name="Path 2787" d="M75.1,22.065V0a.774.774,0,0,0-.774.774V23.226A.774.774,0,0,0,75.1,24H92.9a.774.774,0,0,0,.774-.774H76.258A1.161,1.161,0,0,1,75.1,22.065Z" transform="translate(-47.226 0)" fill="#dad8db"/>
    <path id="Path_2788" data-name="Path 2788" d="M400.645,4.192a.774.774,0,0,0-.227-.547L397,.227A.774.774,0,0,0,396.453,0h-.066V3.871a.387.387,0,0,0,.387.387h3.871Z" transform="translate(-354.194)" fill="#dad8db"/>
    <path id="Path_2789" data-name="Path 2789" d="M46.093,312.462h-12a1.159,1.159,0,0,1-.387-.066l-.373.622v4.891a1.161,1.161,0,0,0,1.161,1.161h11.6l.774-.414v-5.419A.774.774,0,0,0,46.093,312.462Z" transform="translate(-8.158 -297.752)" fill="#e15f78"/>
    <path id="Path_2790" data-name="Path 2790" d="M25.548,290.127a1.164,1.164,0,0,1-.774-1.1V296a1.161,1.161,0,0,0,1.161,1.161h12a.774.774,0,0,0,.774-.774h-12a1.161,1.161,0,0,1-1.161-1.161Z" transform="translate(0 -275.484)" fill="#db4655"/>
    <g id="Group_328" data-name="Group 328" transform="translate(27.472 16.258)">
      <path id="Path_2791" data-name="Path 2791" d="M229.26,348.589h-.76v-.734h.859a.387.387,0,0,0,0-.774h-1.246a.387.387,0,0,0-.387.387v3.074a.387.387,0,0,0,.774,0v-1.179h.76a.387.387,0,0,0,0-.774Z" transform="translate(-220.911 -347.07)" fill="#fff"/>
      <path id="Path_2792" data-name="Path 2792" d="M83.587,346.839h-.862a.387.387,0,0,0-.387.387h0v3.1a.387.387,0,0,0,.774,0v-.96l.475,0a1.261,1.261,0,1,0,0-2.522Zm0,1.748-.471,0c0-.179,0-.975,0-.975h.474a.487.487,0,1,1,0,.974Z" transform="translate(-82.338 -346.839)" fill="#fff"/>
      <path id="Path_2793" data-name="Path 2793" d="M153.069,347.815h-.851a.387.387,0,0,0-.387.388l0,1.5c0,.418,0,1.507,0,1.507a.387.387,0,0,0,.387.386h0s.631,0,.875-.007a1.708,1.708,0,0,0,1.569-1.883A1.668,1.668,0,0,0,153.069,347.815Zm.018,3-.477,0c0-.354,0-.861,0-1.117l0-1.112h.463c.787,0,.827.929.827,1.116C153.9,350.25,153.646,350.8,153.087,350.814Z" transform="translate(-148.573 -347.769)" fill="#fff"/>
    </g>
    <path id="Path_2794" data-name="Path 2794" d="M179.086,85.9a.9.9,0,0,1-.758-.449,1.034,1.034,0,0,1,.2-1.352,5.964,5.964,0,0,1,2.283-1.159,19.906,19.906,0,0,0,.945-2.078c.179-.459.323-.872.439-1.242a4.485,4.485,0,0,1-.733-2.37.989.989,0,0,1,1.147-.861c.189.01.64.109.749.8a6.3,6.3,0,0,1-.337,2.365,14.723,14.723,0,0,0,1.97,2.59,4.836,4.836,0,0,1,2.446.29.776.776,0,0,1,.377.945,1.034,1.034,0,0,1-1.3.75,4.485,4.485,0,0,1-1.807-1.2,18.033,18.033,0,0,0-3.352.622,5.254,5.254,0,0,1-1.924,2.278A.967.967,0,0,1,179.086,85.9Zm-.109-.869c.065.1.1.1.117.1.246-.025.657-.451,1.126-1.17a5.239,5.239,0,0,0-.821.432C178.812,84.777,178.937,84.969,178.977,85.032Zm6.82-2.149a2.521,2.521,0,0,0,.9.5c.2.047.3.023.389-.237C186.967,82.967,186.481,82.884,185.8,82.882ZM182.722,80.5a21.113,21.113,0,0,1-.9,2.158,18.826,18.826,0,0,1,2.221-.417A15.336,15.336,0,0,1,182.722,80.5Zm-.186-3.348c-.275,0-.289.1-.305.212a2.427,2.427,0,0,0,.259,1.162c.175-.836.139-1.278.054-1.374Z" transform="translate(-146.195 -72.806)" fill="#e15f78"/>
  </g>
</svg>
