<svg xmlns="http://www.w3.org/2000/svg" width="16" height="20.005" viewBox="0 0 16 20.005">
  <g id="pdf_icon" transform="translate(-24.774 1.717)">
    <path id="Path_2785" data-name="Path 2785" d="M26.8,266.6h-.58a1.456,1.456,0,0,1-1.45-1.462.874.874,0,0,1,.87-.877H26.8V266.6Z" transform="translate(0 -255.993)" fill="#bd4150"/>
    <path id="Path_2786" data-name="Path 2786" d="M93-2H82.622l-.289.607.132,18.878H96.217L96.085,1.336Z" transform="translate(-55.443 0.283)" fill="#eceaec"/>
    <path id="Path_2787" data-name="Path 2787" d="M74.852,16.566,74.9-2a.578.578,0,0,0-.58.576l-.051,18.854a.578.578,0,0,0,.58.576H87.66a.578.578,0,0,0,.58-.576H75.722A.867.867,0,0,1,74.852,16.566Z" transform="translate(-47.645 0.283)" fill="#dad8db"/>
    <path id="Path_2788" data-name="Path 2788" d="M399.722,3.309a.614.614,0,0,0-.178-.432l-2.677-2.7A.6.6,0,0,0,396.439,0h-.052V3.056a.3.3,0,0,0,.3.306h3.032Z" transform="translate(-359.1 -1.717)" fill="#dad8db"/>
    <path id="Path_2789" data-name="Path 2789" d="M42.895,312.446H33.9a.862.862,0,0,1-.29-.05l-.279.47v3.694a.874.874,0,0,0,.87.877h8.691l.58-.313v-4.094A.582.582,0,0,0,42.895,312.446Z" transform="translate(-8.258 -302.426)" fill="#e15f78"/>
    <path id="Path_2790" data-name="Path 2790" d="M25.354,289.859a.879.879,0,0,1-.58-.827V294.3a.874.874,0,0,0,.87.877h8.992a.582.582,0,0,0,.58-.585H26.224a.874.874,0,0,1-.87-.877Z" transform="translate(0 -279.889)" fill="#db4655"/>
    <g id="Group_328" data-name="Group 328" transform="translate(26.796 11.19)">
      <path id="Path_2791" data-name="Path 2791" d="M228.876,348.22h-.569v-.554h.644a.292.292,0,0,0,0-.585h-.934a.291.291,0,0,0-.29.292V349.7a.29.29,0,1,0,.58,0V348.8h.569a.292.292,0,0,0,0-.585Z" transform="translate(-222.619 -347.072)" fill="#fff"/>
      <path id="Path_2792" data-name="Path 2792" d="M83.274,346.839h-.646a.289.289,0,0,0-.205.086.294.294,0,0,0-.085.206h0v2.339a.29.29,0,1,0,.58,0v-.725h.356a.952.952,0,1,0,0-1.9Zm0,1.32h-.353c0-.135,0-.737,0-.737h.355a.368.368,0,1,1,0,.735Z" transform="translate(-82.338 -346.839)" fill="#fff"/>
      <path id="Path_2793" data-name="Path 2793" d="M152.759,347.815h-.638a.289.289,0,0,0-.205.086.293.293,0,0,0-.085.207l0,1.132c0,.316,0,1.139,0,1.139a.294.294,0,0,0,.086.207.289.289,0,0,0,.2.085h0s.473,0,.656,0a1.287,1.287,0,0,0,1.176-1.422C153.958,348.389,153.476,347.815,152.759,347.815Zm.014,2.265-.357,0c0-.268,0-.651,0-.844v-.84h.347c.59,0,.619.7.619.843C153.378,349.654,153.191,350.073,152.772,350.08Z" transform="translate(-149.39 -347.78)" fill="#fff"/>
    </g>
    <path id="Path_2794" data-name="Path 2794" d="M178.854,83.573a.671.671,0,0,1-.568-.339.786.786,0,0,1,.152-1.021,4.457,4.457,0,0,1,1.71-.876,15.094,15.094,0,0,0,.708-1.57c.134-.346.242-.659.329-.938a3.408,3.408,0,0,1-.549-1.791.742.742,0,0,1,.859-.65c.142.008.48.082.561.607a4.8,4.8,0,0,1-.253,1.786,11.112,11.112,0,0,0,1.476,1.957,3.6,3.6,0,0,1,1.833.219.588.588,0,0,1,.283.714.775.775,0,0,1-.975.567,3.358,3.358,0,0,1-1.354-.9,13.414,13.414,0,0,0-2.512.47,3.959,3.959,0,0,1-1.442,1.721A.72.72,0,0,1,178.854,83.573Zm-.082-.657c.048.075.075.074.088.072.185-.019.492-.34.844-.884a3.916,3.916,0,0,0-.616.326C178.649,82.724,178.742,82.869,178.772,82.917Zm5.11-1.623a1.885,1.885,0,0,0,.671.374c.15.035.228.017.292-.179C184.759,81.357,184.4,81.295,183.882,81.293Zm-2.3-1.8a16.018,16.018,0,0,1-.672,1.63,14.005,14.005,0,0,1,1.664-.315A11.578,11.578,0,0,1,181.578,79.49Zm-.14-2.529c-.206,0-.217.078-.229.16A1.845,1.845,0,0,0,181.4,78c.131-.631.1-.965.041-1.038Z" transform="translate(-147.997 -75.29)" fill="#e15f78"/>
  </g>
</svg>
