<svg id="question_mark" xmlns="http://www.w3.org/2000/svg" width="16" height="16" viewBox="0 0 16 16">
  <path id="Path_2783" data-name="Path 2783" d="M8,0a8,8,0,1,0,8,8A8,8,0,0,0,8,0ZM8,14.667A6.667,6.667,0,1,1,14.667,8,6.667,6.667,0,0,1,8,14.667Z" fill="#003"/>
  <path id="Path_2784" data-name="Path 2784" d="M11.145,5.041A2.667,2.667,0,0,0,8,7.666a.667.667,0,1,0,1.333,0,1.333,1.333,0,0,1,1.581-1.311,1.349,1.349,0,0,1,1.067,1.063,1.333,1.333,0,0,1-.667,1.417A2.636,2.636,0,0,0,10,11.171v.5a.667.667,0,1,0,1.333,0v-.5A1.321,1.321,0,0,1,11.953,10a2.667,2.667,0,0,0-.809-4.961Z" transform="translate(-2.667 -1.666)" fill="#003"/>
  <rect id="Rectangle_101" data-name="Rectangle 101" width="1.333" height="1.333" rx="0.667" transform="translate(7.333 11.333)" fill="#003"/>
</svg>
