<?xml version="1.0" encoding="UTF-8"?>
<svg id="Layer_1" data-name="Layer 1" xmlns="http://www.w3.org/2000/svg" xmlns:xlink="http://www.w3.org/1999/xlink" viewBox="0 0 40 40">
  <defs>
    <style>
      .cls-1 {
        fill: none;
      }

      .cls-2 {
        clip-path: url(#clippath);
      }

      .cls-3 {
        fill: #d1d6de;
      }
    </style>
    <clipPath id="clippath">
      <rect class="cls-1" x="5.63" y="8.79" width="28" height="24"/>
    </clipPath>
  </defs>
  <g class="cls-2">
    <g id="Group_177" data-name="Group 177">
      <path id="Path_2780" data-name="Path 2780" class="cls-3" d="m7.49,30.52c-1.3-1.69-1.96-3.78-1.86-5.91-.03-3.22.93-6.37,2.76-9.02,2.18-2.97,5.1-5.32,8.47-6.8l1,1.42c-1.92,1.16-3.6,2.69-4.94,4.49-1.37,1.64-2.15,3.69-2.22,5.82-.02.47.14.93.45,1.29.36.35.86.53,1.36.49,1.44-.03,2.83.54,3.85,1.56,1.03.98,1.61,2.35,1.59,3.78.03,1.4-.55,2.75-1.59,3.69-1.04.97-2.42,1.5-3.85,1.47-1.94.08-3.8-.76-5.03-2.27m15.68,0c-1.3-1.69-1.96-3.78-1.86-5.91-.03-3.22.94-6.37,2.77-9.02,2.18-2.97,5.1-5.32,8.47-6.8l1,1.42c-1.92,1.16-3.6,2.69-4.94,4.49-1.37,1.64-2.15,3.69-2.22,5.82-.02.47.14.94.45,1.29.36.35.86.53,1.36.49,1.44-.03,2.83.54,3.85,1.56,1.03.98,1.61,2.35,1.58,3.78.03,1.4-.55,2.75-1.59,3.69-1.04.97-2.43,1.5-3.85,1.47-1.94.08-3.8-.76-5.03-2.27"/>
    </g>
  </g>
</svg>