<?xml version="1.0" encoding="UTF-8"?>
<svg id="Layer_1" data-name="Layer 1" xmlns="http://www.w3.org/2000/svg" viewBox="0 0 40 40">
  <defs>
    <style>
      .cls-1 {
        fill: #687992;
      }
    </style>
  </defs>
  <path id="Path_128" data-name="Path 128" class="cls-1" d="m17.54,14.45c.04.61.56,1.08,1.18,1.04.2-.01.4-.08.56-.19.42-.29,1.01-.19,1.3.24.11.16.17.35.17.54v3.15h2.32c-.37-1.39.46-2.81,1.85-3.18,1.39-.37,2.81.46,3.18,1.85.12.44.12.89,0,1.33h2.34c1.46-2.3.77-5.35-1.53-6.81-.69-.44-1.49-.7-2.31-.75.39-2.03-.93-3.99-2.96-4.39-.22-.04-.45-.07-.67-.07-.8,0-1.58.27-2.22.76v4.69c0,.52-.41.94-.92.95-.19,0-.38-.06-.54-.17-.51-.35-1.2-.21-1.55.29-.14.21-.21.46-.19.72Z"/>
  <path id="Path_129" data-name="Path 129" class="cls-1" d="m12.74,19.22c.53,0,.94.44.94.96,0,.19-.06.37-.17.52-.36.51-.24,1.21.27,1.56.51.36,1.21.24,1.56-.27.27-.39.27-.9,0-1.29-.3-.43-.19-1.03.25-1.32.15-.11.34-.16.52-.17h3.15v-2.31c-1.41.33-2.82-.54-3.15-1.95-.33-1.41.54-2.82,1.95-3.15.39-.09.8-.09,1.19,0v-3.86c-1.64-1.22-3.97-.89-5.19.76-.62.83-.86,1.88-.67,2.89-2.73.19-4.78,2.56-4.59,5.28.06.83.33,1.63.78,2.33h3.15Z"/>
  <path id="Path_130" data-name="Path 130" class="cls-1" d="m30.41,20.72h-3.14c-.53,0-.94-.44-.94-.96,0-.19.06-.37.17-.52.36-.51.24-1.21-.27-1.56-.51-.36-1.21-.24-1.56.27-.27.39-.27.9,0,1.29.3.43.19,1.03-.25,1.32-.15.11-.34.16-.52.17h-3.15v2.31c1.41-.33,2.82.54,3.15,1.95.33,1.41-.54,2.82-1.95,3.15-.39.09-.8.09-1.19,0v3.91c1.64,1.22,3.97.89,5.19-.76.62-.83.86-1.88.67-2.89,2.74-.2,4.79-2.59,4.59-5.32-.06-.83-.33-1.64-.79-2.34Z"/>
  <path id="Path_131" data-name="Path 131" class="cls-1" d="m22.47,25.66c.05-.61-.4-1.15-1.02-1.2-.25-.02-.51.05-.72.19-.42.29-1.01.19-1.3-.24-.11-.16-.17-.35-.17-.54v-3.14h-2.32c.37,1.39-.46,2.81-1.85,3.18s-2.81-.46-3.18-1.85c-.12-.44-.12-.89,0-1.33h-2.33c-1.48,2.3-.82,5.36,1.48,6.84.7.45,1.51.72,2.34.78-.39,2.03.93,3.99,2.96,4.39.22.04.45.07.67.07.8,0,1.58-.27,2.22-.76v-4.74c0-.52.41-.94.92-.95.19,0,.38.05.54.17.51.35,1.2.22,1.54-.29.11-.17.18-.36.19-.56Z"/>
</svg>